<svg xmlns="http://www.w3.org/2000/svg" width="64" height="64"><path d="M15.28 37.664C17.876 43.692 24.388 47.96 32 47.96c7.612 0 14.124-4.268 16.72-10.296V26.092C46.124 20.064 39.612 15.796 32 15.796c-7.612 0-14.124 4.268-16.72 10.296v11.572zM30.24 24.2c0-.968.792-1.76 1.76-1.76s1.76.792 1.76 1.76-.792 1.76-1.76 1.76-1.76-.792-1.76-1.76zm-.88 17.6A2.648 2.648 0 0 1 32 39.16a2.648 2.648 0 0 1 2.64 2.64A2.648 2.648 0 0 1 32 44.44a2.648 2.648 0 0 1-2.64-2.64zM19.24 31.68a2.648 2.648 0 0 1 2.64-2.64 2.648 2.648 0 0 1 2.64 2.64 2.648 2.648 0 0 1-2.64 2.64 2.648 2.648 0 0 1-2.64-2.64zm20.24 0a2.648 2.648 0 0 1 2.64-2.64 2.648 2.648 0 0 1 2.64 2.64 2.648 2.648 0 0 1-2.64 2.64 2.648 2.648 0 0 1-2.64-2.64zm-29.48 0c0 11.44 9.856 20.68 22 20.68s22-9.24 22-20.68S44.144 11 32 11s-22 9.24-22 20.68zm3.52 6.644V25.52C16.38 18.832 23.596 14.124 32 14.124s15.62 4.752 18.48 11.396v12.804C47.62 45.012 40.404 49.72 32 49.72s-15.62-4.752-18.48-11.396z"/></svg>