<svg xmlns="http://www.w3.org/2000/svg" width="64" height="64"><path fill-rule="evenodd" d="M15.743 29.171a4.585 4.585 0 0 0 4.571 4.572 4.585 4.585 0 0 0 4.572-4.572 4.585 4.585 0 0 0-4.572-4.571 4.585 4.585 0 0 0-4.571 4.571zm2.286 0a2.264 2.264 0 0 1 2.285-2.285A2.264 2.264 0 0 1 22.6 29.17a2.264 2.264 0 0 1-2.286 2.286 2.264 2.264 0 0 1-2.285-2.286zm3.2 10.058A4.585 4.585 0 0 0 25.8 43.8a4.585 4.585 0 0 0 4.571-4.571 4.585 4.585 0 0 0-4.571-4.572 4.585 4.585 0 0 0-4.571 4.572zm2.285 0a2.264 2.264 0 0 1 2.286-2.286 2.264 2.264 0 0 1 2.286 2.286 2.264 2.264 0 0 1-2.286 2.285 2.264 2.264 0 0 1-2.286-2.285zm9.6 0a4.585 4.585 0 0 0 4.572 4.571 4.585 4.585 0 0 0 4.571-4.571 4.585 4.585 0 0 0-4.571-4.572 4.585 4.585 0 0 0-4.572 4.572zm2.286 0a2.264 2.264 0 0 1 2.286-2.286 2.264 2.264 0 0 1 2.285 2.286 2.264 2.264 0 0 1-2.285 2.285A2.264 2.264 0 0 1 35.4 39.23zM27.171 29.17a4.585 4.585 0 0 0 4.572 4.572 4.585 4.585 0 0 0 4.571-4.572 4.585 4.585 0 0 0-4.571-4.571 4.585 4.585 0 0 0-4.572 4.571zm2.286 0a2.264 2.264 0 0 1 2.286-2.285 2.264 2.264 0 0 1 2.286 2.285 2.264 2.264 0 0 1-2.286 2.286 2.264 2.264 0 0 1-2.286-2.286zm9.143 0a4.585 4.585 0 0 0 4.571 4.572 4.585 4.585 0 0 0 4.572-4.572 4.585 4.585 0 0 0-4.573-4.57 4.585 4.585 0 0 0-4.571 4.571zm2.286 0a2.264 2.264 0 0 1 2.285-2.285 2.264 2.264 0 0 1 2.286 2.285 2.264 2.264 0 0 1-2.286 2.286 2.264 2.264 0 0 1-2.285-2.286zm-6.857-7.77a3.668 3.668 0 0 0 3.657 3.657 3.668 3.668 0 0 0 3.657-3.657 3.668 3.668 0 0 0-3.657-3.657 3.668 3.668 0 0 0-3.657 3.657zm2.285 0c0-.777.595-1.371 1.372-1.371.777 0 1.371.594 1.371 1.371s-.594 1.371-1.371 1.371a1.347 1.347 0 0 1-1.372-1.371zm-13.714 0a3.668 3.668 0 0 0 3.657 3.657 3.668 3.668 0 0 0 3.657-3.657 3.668 3.668 0 0 0-3.657-3.657A3.668 3.668 0 0 0 22.6 21.4zm2.286 0c0-.777.594-1.371 1.371-1.371s1.372.594 1.372 1.371-.595 1.371-1.372 1.371a1.347 1.347 0 0 1-1.371-1.371zM13 30.269c0-4.755 1.829-9.098 4.8-12.389 2.24-2.789 5.577-2.88 6.629-2.88h14.857s4.114.091 6.491 2.971c2.743 3.429 4.709 7.589 4.709 12.298 0 10.24-8.412 18.56-18.743 18.56C21.41 48.829 13 40.509 13 30.269z"/></svg>